#N canvas -7 0 766 772 10;
#X obj 8 976 dac~;
#X obj -4 88 metro 120;
#X obj -4 4 loadbang;
#X obj -4 27 tgl 15 0 empty empty empty 17 7 0 10 -262144 -1 -1 1 1
;
#X obj 364 112 nbx 5 14 -1e+037 1e+037 0 0 empty empty empty 0 -8 0
10 -262144 -1 -1 3005 256;
#X obj 74 126 / 16;
#X obj 74 152 nbx 5 14 -1e+037 1e+037 0 0 empty empty empty 0 -8 0
10 -262144 -1 -1 187.813 256;
#X obj 59 203 del;
#X obj 74 178 * 0;
#X obj -4 223 bng 15 250 50 0 empty empty empty 17 7 0 10 -262144 -1
-1;
#X obj 131 75 nbx 5 14 1 16 0 0 empty empty empty 0 -8 0 10 -262144
-1 -1 8 256;
#X obj 74 89 t b;
#X text 188 72 1-16 multiplier;
#N canvas 774 327 499 443 voice3 1;
#X obj 330 18 inlet;
#X obj 125 453 outlet~;
#N canvas 783 9 562 388 noteAdsr 1;
#X floatatom 13 147 5 0 0 0 - - -, f 5;
#X obj 193 65 tgl 15 0 empty empty empty 17 7 0 10 -262144 -1 -1 1
1;
#X obj 13 -3 inlet;
#X obj 13 168 outlet;
#X obj 193 13 loadbang;
#X obj 13 24 bng 15 250 50 0 empty empty empty 17 7 0 10 -262144 -1
-1;
#X floatatom 76 43 5 0 0 0 - - -, f 5;
#X obj 76 -2 inlet;
#X obj 129 43 delay 1000;
#X obj 129 -3 inlet;
#X floatatom 129 21 5 0 0 0 - - -, f 5;
#X obj 13 100 line~;
#X obj 13 124 snapshot~;
#X obj 193 86 metro 5;
#X obj 129 67 pack 0 5;
#X obj 13 64 pack 0.5 5, f 11;
#X connect 0 0 3 0;
#X connect 1 0 13 0;
#X connect 2 0 5 0;
#X connect 2 0 8 0;
#X connect 4 0 1 0;
#X connect 5 0 6 0;
#X connect 5 0 15 0;
#X connect 6 0 15 1;
#X connect 7 0 6 0;
#X connect 7 0 8 1;
#X connect 8 0 14 0;
#X connect 9 0 10 0;
#X connect 9 0 14 1;
#X connect 11 0 12 0;
#X connect 12 0 0 0;
#X connect 13 0 12 0;
#X connect 14 0 11 0;
#X connect 15 0 11 0;
#X restore 330 49 pd noteAdsr;
#X obj 125 432 *~ 0;
#X floatatom 330 169 5 0 0 0 - - -, f 5;
#X obj 47 18 inlet;
#X obj 125 175 *~ 0.2;
#X obj 225 255 lop~;
#X floatatom 330 235 5 0 0 0 - - -, f 5;
#X obj 225 285 lop~;
#X obj 225 315 lop~;
#X obj 225 345 lop~;
#X obj 47 136 *~ 2;
#X obj 47 158 -~ 1;
#X obj 225 375 lop~;
#X obj 225 405 lop~;
#X obj 125 125 *~ 2;
#X obj 125 147 -~ 1;
#X msg 47 39 347.5;
#X obj 47 89 / 6;
#X obj 228 115 *~ 2;
#X obj 228 137 -~ 1;
#X obj 226 207 *~ 1.1;
#X obj 47 211 clip~ -0.4 0.4;
#X obj 47 234 *~ 2.1;
#X obj 227 184 clip~ -0.6 0.6;
#X obj 227 159 *~ 1;
#X obj 228 69 * 2.5;
#X obj 125 78 0.35;
#X obj 367 18 inlet;
#X obj 404 18 inlet;
#X obj 47 113 phasor~ 295;
#X obj 125 103 phasor~ 295;
#X obj 228 93 phasor~ 295;
#X obj 330 204 * 10000;
#X connect 0 0 2 0;
#X connect 2 0 4 0;
#X connect 3 0 1 0;
#X connect 4 0 3 1;
#X connect 4 0 34 0;
#X connect 5 0 18 0;
#X connect 6 0 7 0;
#X connect 6 0 3 0;
#X connect 7 0 9 0;
#X connect 9 0 10 0;
#X connect 10 0 11 0;
#X connect 11 0 14 0;
#X connect 12 0 13 0;
#X connect 13 0 23 0;
#X connect 14 0 15 0;
#X connect 15 0 3 0;
#X connect 16 0 17 0;
#X connect 17 0 6 0;
#X connect 18 0 19 0;
#X connect 18 0 27 0;
#X connect 18 0 28 0;
#X connect 19 0 31 0;
#X connect 20 0 21 0;
#X connect 21 0 26 0;
#X connect 22 0 7 0;
#X connect 23 0 24 0;
#X connect 24 0 7 0;
#X connect 25 0 22 0;
#X connect 26 0 25 0;
#X connect 27 0 33 0;
#X connect 28 0 32 0;
#X connect 29 0 2 1;
#X connect 30 0 2 2;
#X connect 31 0 12 0;
#X connect 32 0 16 0;
#X connect 33 0 20 0;
#X connect 34 0 7 1;
#X connect 34 0 8 0;
#X connect 34 0 9 1;
#X connect 34 0 10 1;
#X connect 34 0 11 1;
#X connect 34 0 14 1;
#X connect 34 0 15 1;
#X restore 8 278 pd voice3;
#X obj 59 223 bng 15 250 50 0 empty empty empty 17 7 0 10 -262144 -1
-1;
#X obj 326 31 r MasterClock @hv_param 1000 10000 5000;
#X obj 8 366 hip~ 50;
#X obj 8 394 lop~ 18000;
#X floatatom 203 327 12 30 12000 0 Highpass_Freq - -, f 12;
#X floatatom 203 378 12 30 18000 0 Lowpass_Freq - -, f 12;
#X obj 203 354 r lowpassFreq @hv_param 30 18000 18000;
#X obj 8 562 clip~;
#X floatatom 82 542 5 -1 0 0 - - -, f 5;
#X floatatom 82 494 5 0 1 0 - - -, f 5;
#X text 120 542 Lower Limit;
#X text 119 494 Upper Limit;
#X floatatom 203 478 5 0.02 1 0 - - -, f 5;
#X obj 203 502 * -1;
#X floatatom 203 526 5 0 0 0 - - -, f 5;
#X msg 273 431 1;
#X obj 273 411 loadbang;
#X obj 24 452 r distortionCrush @hv_param 0.2 1 1;
#X text 452 326 <<-hi and low pass filters;
#X floatatom 147 882 5 0 0 0 - - -, f 5;
#X text 399 860 <<-Master Volume;
#X obj 203 303 r highpassFreq @hv_param 30 12000 50;
#X obj 131 53 r objVar @hv_param 1 16 1;
#X text 394 663 <<-Variable Delay;
#X text 70 278 <<-Voice;
#X text 368 469 <<-Distortion/Clipping Circuit Lower = More Clipping
\; less amplitude;
#X obj 273 459 vsl 48 128 0.2 1 0 0 empty empty empty 0 -9 0 10 -262144
-1 -1 12700 1;
#X obj 8 246 loadbang;
#X msg 179 279 50;
#X msg 136 279 18000;
#X obj 64 610 delwrite~ DelayLeft 4000;
#X obj 218 610 delwrite~ DelayRight 4000;
#X obj 64 750 vd~ DelayLeft;
#X obj 157 749 vd~ DelayRight;
#X obj 64 721 sig~;
#X obj 157 722 sig~;
#X floatatom 64 690 5 0 0 0 - - -, f 5;
#X floatatom 157 694 5 0 0 0 - - -, f 5;
#X obj 8 913 *~ 0.025;
#X obj 64 913 *~ 0.025;
#X obj 147 862 r masterVoiceVolume @hv_param 0 0.8 0.025;
#X floatatom 258 775 5 0 1 0 - - -, f 5;
#X obj 157 809 *~ 0;
#X obj 64 809 *~ 0;
#X obj 258 749 r delayLevel @hv_param 0 1 0;
#X text 435 747 <<-Delay Level;
#X obj 197 914 tgl 15 0 empty empty empty 17 7 0 10 -262144 -1 -1 0
1;
#X obj 112 982 env~;
#X obj 152 982 env~;
#X obj 64 944 *~;
#X obj 8 944 *~;
#X obj 197 892 r masterVoiceOnOff @hv_param 0 1 1;
#X obj 313 991 r masterENVright @hv_param;
#X obj 274 971 r masterENVleft @hv_param;
#X obj 112 1024 s masterENVleft;
#X obj 152 1002 s masterENVright;
#X obj 201 178 hsl 128 15 5 3000 0 0 empty empty ADSR_Attack-Time -2
-8 0 10 -262144 -1 -1 0 1;
#X obj 382 207 hsl 128 15 5 3000 0 0 empty empty ADSR_Release-Time
-2 -8 0 10 -262144 -1 -1 12700 1;
#X obj 364 90 +;
#X obj 198 144 r ADSRattackTime @hv_param 5 3000 500;
#X obj 379 174 r ADSRReleaseTime @hv_param 5 3000 500;
#X obj 64 645 r delayTimeLeft @hv_param 1 4000 100;
#X obj 157 667 r delayTimeRight @hv_param 1 4000 40;
#X obj 198 203 f;
#X obj 379 233 t b f;
#X floatatom 364 58 5 0 0 0 - - -, f 5;
#X floatatom 406 58 5 0 0 0 - - -, f 5;
#X connect 1 0 7 0;
#X connect 1 0 9 0;
#X connect 2 0 3 0;
#X connect 3 0 1 0;
#X connect 4 0 5 0;
#X connect 4 0 1 1;
#X connect 5 0 6 0;
#X connect 6 0 8 0;
#X connect 7 0 14 0;
#X connect 8 0 7 1;
#X connect 10 0 8 1;
#X connect 10 0 7 0;
#X connect 10 0 11 0;
#X connect 11 0 5 0;
#X connect 13 0 16 0;
#X connect 14 0 13 1;
#X connect 15 0 4 0;
#X connect 16 0 17 0;
#X connect 17 0 21 0;
#X connect 18 0 16 1;
#X connect 19 0 17 1;
#X connect 20 0 19 0;
#X connect 21 0 44 0;
#X connect 21 0 45 0;
#X connect 21 0 52 0;
#X connect 21 0 53 0;
#X connect 22 0 21 1;
#X connect 23 0 21 2;
#X connect 26 0 27 0;
#X connect 26 0 23 0;
#X connect 27 0 28 0;
#X connect 28 0 22 0;
#X connect 29 0 26 0;
#X connect 29 0 40 0;
#X connect 30 0 29 0;
#X connect 31 0 26 0;
#X connect 33 0 52 1;
#X connect 33 0 53 1;
#X connect 35 0 18 0;
#X connect 36 0 10 0;
#X connect 40 0 26 0;
#X connect 41 0 42 0;
#X connect 41 0 43 0;
#X connect 41 0 13 0;
#X connect 42 0 18 0;
#X connect 43 0 19 0;
#X connect 46 0 57 0;
#X connect 47 0 56 0;
#X connect 48 0 46 0;
#X connect 49 0 47 0;
#X connect 50 0 48 0;
#X connect 51 0 49 0;
#X connect 52 0 64 0;
#X connect 53 0 63 0;
#X connect 54 0 33 0;
#X connect 55 0 56 1;
#X connect 55 0 57 1;
#X connect 56 0 53 0;
#X connect 57 0 52 0;
#X connect 58 0 55 0;
#X connect 60 0 63 1;
#X connect 60 0 64 1;
#X connect 61 0 68 0;
#X connect 62 0 69 0;
#X connect 63 0 0 1;
#X connect 63 0 62 0;
#X connect 64 0 0 0;
#X connect 64 0 61 0;
#X connect 65 0 60 0;
#X connect 70 0 13 2;
#X connect 70 0 77 0;
#X connect 71 0 13 3;
#X connect 71 0 78 0;
#X connect 72 0 4 0;
#X connect 73 0 70 0;
#X connect 74 0 71 0;
#X connect 75 0 50 0;
#X connect 76 0 51 0;
#X connect 77 0 79 0;
#X connect 78 0 77 0;
#X connect 78 1 80 0;
#X connect 79 0 72 0;
#X connect 80 0 72 1;
