#N canvas 693 23 712 994 10;
#X obj 8 976 dac~;
#X obj -4 88 metro 120;
#X obj -4 4 loadbang;
#X obj -4 27 tgl 15 0 empty empty empty 17 7 0 10 -262144 -1 -1 1 1
;
#X obj 47 49 nbx 5 14 -1e+37 1e+37 0 0 empty empty empty 0 -8 0 10
-262144 -1 -1 4000 256;
#X obj 74 126 / 16;
#X obj 74 152 nbx 5 14 -1e+37 1e+37 0 0 empty empty empty 0 -8 0 10
-262144 -1 -1 250 256;
#X obj 59 203 del;
#X obj 74 178 * 0;
#X obj -4 223 bng 15 250 50 0 empty empty empty 17 7 0 10 -262144 -1
-1;
#X obj 131 75 nbx 5 14 -1e+37 1e+37 0 0 empty empty empty 0 -8 0 10
-262144 -1 -1 5 256;
#X obj 74 89 t b;
#X text 188 72 1-16 multiplier;
#N canvas 142 456 449 418 voice3 1;
#X obj 150 -29 inlet;
#X obj -133 356 outlet~;
#N canvas 606 497 450 300 noteAdsr 0;
#X obj -218 -31 snapshot~;
#X floatatom -218 -9 5 0 0 0 - - -;
#X obj -74 -70 metro 50;
#X obj -74 -91 tgl 15 0 empty empty empty 17 7 0 10 -262144 -1 -1 1
1;
#X obj -218 -144 inlet;
#X obj -218 12 outlet;
#X obj -74 -143 loadbang;
#X msg -218 -113 0.5 1000;
#X obj -218 -66 line~;
#X obj -151 -113 delay 1000;
#X msg -151 -92 0 3000;
#X connect 0 0 1 0;
#X connect 1 0 5 0;
#X connect 2 0 0 0;
#X connect 3 0 2 0;
#X connect 4 0 7 0;
#X connect 4 0 9 0;
#X connect 6 0 3 0;
#X connect 7 0 8 0;
#X connect 8 0 0 0;
#X connect 9 0 10 0;
#X connect 10 0 8 0;
#X restore 150 12 pd noteAdsr;
#X obj -133 335 *~ 0;
#X floatatom 150 145 5 0 0 0 - - -;
#X obj -94 -29 loadbang;
#X obj -133 -29 inlet;
#X obj -55 128 *~ 0.2;
#X obj 55 92 *~ 3;
#X obj 41 168 lop~;
#X floatatom 249 129 5 0 0 0 - - -;
#X obj 51 198 lop~;
#X obj 61 228 lop~;
#X obj 71 258 lop~;
#X obj -133 66 phasor~ 295;
#X obj -126 91 *~ 2;
#X obj -126 113 -~ 1;
#X obj 55 26 phasor~ 295;
#X obj -55 56 phasor~ 295;
#X obj 122 177 * 10000;
#X obj 101 288 lop~;
#X obj 151 318 lop~;
#X obj -55 32 * 1;
#X obj -55 78 *~ 2;
#X obj -55 100 -~ 1;
#X msg -133 12 347.5;
#X obj -133 42 / 6;
#X obj 56 48 *~ 2;
#X obj 56 70 -~ 1;
#X obj 55 2 * 4;
#X obj 47 117 clip~ -0.4 0.4;
#X obj 42 140 *~ 1.1;
#X obj -155 144 clip~ -0.4 0.4;
#X obj -155 167 *~ 2.1;
#X connect 0 0 2 0;
#X connect 2 0 4 0;
#X connect 3 0 1 0;
#X connect 4 0 3 1;
#X connect 4 0 19 0;
#X connect 5 0 25 0;
#X connect 6 0 25 0;
#X connect 7 0 9 0;
#X connect 7 0 3 0;
#X connect 8 0 30 0;
#X connect 9 0 11 0;
#X connect 11 0 12 0;
#X connect 12 0 13 0;
#X connect 13 0 20 0;
#X connect 14 0 15 0;
#X connect 15 0 16 0;
#X connect 16 0 32 0;
#X connect 17 0 27 0;
#X connect 18 0 23 0;
#X connect 19 0 9 1;
#X connect 19 0 10 0;
#X connect 19 0 11 1;
#X connect 19 0 12 1;
#X connect 19 0 13 1;
#X connect 19 0 20 1;
#X connect 19 0 21 1;
#X connect 20 0 21 0;
#X connect 21 0 3 0;
#X connect 22 0 18 0;
#X connect 23 0 24 0;
#X connect 24 0 7 0;
#X connect 25 0 22 0;
#X connect 25 0 26 0;
#X connect 25 0 29 0;
#X connect 26 0 14 0;
#X connect 27 0 28 0;
#X connect 28 0 8 0;
#X connect 29 0 17 0;
#X connect 30 0 31 0;
#X connect 31 0 9 0;
#X connect 32 0 33 0;
#X connect 33 0 9 0;
#X restore 8 278 pd voice3;
#X obj 59 223 bng 15 250 50 0 empty empty empty 17 7 0 10 -262144 -1
-1;
#X obj 47 27 r MasterClock @hv_param 1000 10000 5000;
#X obj 8 366 hip~ 50;
#X obj 8 394 lop~ 18000;
#X floatatom 203 327 12 30 12000 0 Highpass_Freq - -;
#X floatatom 203 378 12 30 18000 0 Lowpass_Freq - -;
#X obj 203 354 r lowpassFreq @hv_param 30 18000 18000;
#X obj 8 562 clip~;
#X floatatom 82 542 5 -1 0 0 - - -;
#X floatatom 82 494 5 0 1 0 - - -;
#X text 120 542 Lower Limit;
#X text 119 494 Upper Limit;
#X text 211 525 comment;
#X floatatom 203 478 5 0.02 1 0 - - -;
#X obj 203 502 * -1;
#X floatatom 203 526 5 0 0 0 - - -;
#X msg 273 431 1;
#X obj 273 411 loadbang;
#X obj 24 452 r distortionCrush @hv_param 0.2 1 1;
#X text 452 326 <<-hi and low pass filters;
#X floatatom 147 882 5 0 0 0 - - -;
#X text 399 860 <<-Master Volume;
#X obj 203 303 r highpassFreq @hv_param 30 12000 50;
#X obj 131 53 r objVar @hv_param 1 16 1;
#X text 394 663 <<-Variable Delay;
#X text 70 278 <<-Voice;
#X text 368 469 <<-Distortion/Clipping Circuit Lower = More Clipping
\; less amplitude;
#X obj 273 459 vsl 48 128 0.2 1 0 0 empty empty empty 0 -9 0 10 -262144
-1 -1 12700 1;
#X obj 8 246 loadbang;
#X msg 179 279 50;
#X msg 136 279 18000;
#X obj 64 610 delwrite~ DelayLeft 4000;
#X obj 218 610 delwrite~ DelayRight 4000;
#X obj 64 750 vd~ DelayLeft;
#X obj 157 749 vd~ DelayRight;
#X obj 64 721 sig~;
#X obj 157 722 sig~;
#X obj 157 667 r delayTimeRight @hv_param 1 4000 500;
#X floatatom 64 690 5 0 0 0 - - -;
#X floatatom 157 694 5 0 0 0 - - -;
#X obj 8 913 *~ 0.025;
#X obj 64 913 *~ 0.025;
#X obj 147 862 r masterVoiceVolume @hv_param 0 0.8 0.025;
#X obj 64 645 r delayTimeLeft @hv_param 1 4000 550;
#X floatatom 258 775 5 0 1 0 - - -;
#X obj 157 809 *~ 0;
#X obj 64 809 *~ 0;
#X obj 258 749 r delayLevel @hv_param 0 1 0;
#X text 435 747 <<-Delay Level;
#X obj 197 914 tgl 15 0 empty empty empty 17 7 0 10 -262144 -1 -1 1
1;
#X obj 112 982 env~;
#X obj 152 982 env~;
#X obj 64 944 *~;
#X obj 8 944 *~;
#X obj 197 892 r masterVoiceOnOff @hv_param 0 1 1;
#X obj 313 991 r masterENVright @hv_param;
#X obj 274 971 r masterENVleft @hv_param;
#X obj 112 1024 s masterENVleft;
#X obj 152 1002 s masterENVright;
#X msg 83 6 4000;
#X text 238 329;
#X connect 1 0 7 0;
#X connect 1 0 9 0;
#X connect 2 0 3 0;
#X connect 3 0 1 0;
#X connect 4 0 5 0;
#X connect 4 0 1 1;
#X connect 5 0 6 0;
#X connect 6 0 8 0;
#X connect 7 0 14 0;
#X connect 8 0 7 1;
#X connect 10 0 8 1;
#X connect 10 0 7 0;
#X connect 10 0 11 0;
#X connect 11 0 5 0;
#X connect 13 0 16 0;
#X connect 14 0 13 1;
#X connect 15 0 4 0;
#X connect 16 0 17 0;
#X connect 17 0 21 0;
#X connect 18 0 16 1;
#X connect 19 0 17 1;
#X connect 20 0 19 0;
#X connect 21 0 45 0;
#X connect 21 0 46 0;
#X connect 21 0 54 0;
#X connect 21 0 55 0;
#X connect 22 0 21 1;
#X connect 23 0 21 2;
#X connect 27 0 28 0;
#X connect 27 0 23 0;
#X connect 28 0 29 0;
#X connect 29 0 22 0;
#X connect 30 0 27 0;
#X connect 30 0 41 0;
#X connect 31 0 30 0;
#X connect 32 0 27 0;
#X connect 34 0 54 1;
#X connect 34 0 55 1;
#X connect 36 0 18 0;
#X connect 37 0 10 0;
#X connect 41 0 27 0;
#X connect 42 0 43 0;
#X connect 42 0 44 0;
#X connect 42 0 13 0;
#X connect 43 0 18 0;
#X connect 44 0 19 0;
#X connect 47 0 60 0;
#X connect 48 0 59 0;
#X connect 49 0 47 0;
#X connect 50 0 48 0;
#X connect 51 0 53 0;
#X connect 52 0 49 0;
#X connect 53 0 50 0;
#X connect 54 0 67 0;
#X connect 55 0 66 0;
#X connect 56 0 34 0;
#X connect 57 0 52 0;
#X connect 58 0 59 1;
#X connect 58 0 60 1;
#X connect 59 0 55 0;
#X connect 60 0 54 0;
#X connect 61 0 58 0;
#X connect 63 0 66 1;
#X connect 63 0 67 1;
#X connect 64 0 71 0;
#X connect 65 0 72 0;
#X connect 66 0 0 1;
#X connect 66 0 65 0;
#X connect 67 0 0 0;
#X connect 67 0 64 0;
#X connect 68 0 63 0;
#X connect 73 0 4 0;
